<svg 
    width="40" 
    height="40" 
    viewBox="0 0 40 40" 
    fill="none" 
    xmlns="http://www.w3.org/2000/svg">
    <path 
        d="M21.75 16.3167L16.6667 12.5V27.5L21.75 23.6833L26.6667 20L21.75 16.3167ZM21.75 16.3167L16.6667 12.5V27.5L21.75 
            23.6833L26.6667 20L21.75 16.3167ZM21.75 16.3167L16.6667 12.5V27.5L21.75 23.6833L26.6667 20L21.75 16.3167ZM18.3333 
            6.78332V3.41666C14.9833 3.74999 11.9333 5.08332 9.46666 7.09999L11.8333 9.48332C13.7166 8.01314 15.9627 
            7.08014 18.3333 6.78332V6.78332ZM9.48332 11.8333L7.09999 9.46666C5.02468 11.9943 3.74317 15.0792 3.41666 
            18.3333H6.78332C7.08332 15.9 8.04999 13.6833 9.48332 11.8333ZM6.78332 21.6667H3.41666C3.74999 25.0167 5.08332 
            28.0667 7.09999 30.5333L9.48332 28.15C8.01059 26.2746 7.07711 24.0331 6.78332 21.6667V21.6667ZM9.46666 32.9C11.9959 
            34.9726 15.08 36.2537 18.3333 36.5833V33.2167C15.9627 32.9198 13.7166 31.9868 11.8333 30.5167L9.46666 32.9V32.9ZM36.6667 
            20C36.6667 28.6 30.1333 35.7 21.75 36.5833V33.2167C28.2833 32.35 33.3333 26.75 33.3333 20C33.3333 13.25 28.2833 7.64999 
            21.75 6.78332V3.41666C30.1333 4.29999 36.6667 11.4 36.6667 20Z" 
        fill="#00DE9B"/>
</svg>
